# Blender v2.79 (sub 0) OBJ File: ''
# www.blender.org
mtllib go_mb.mtl
o Sphere
v 0.000000 -0.000000 -1.000000
v -0.000000 1.000000 -0.000000
v 0.270598 0.923880 -0.270598
v 0.500000 0.707107 -0.500000
v 0.653281 0.382683 -0.653282
v 0.707107 -0.000000 -0.707107
v 0.653281 -0.382684 -0.653282
v 0.500000 -0.707107 -0.500000
v 0.270598 -0.923880 -0.270598
v 0.382683 0.923880 -0.000000
v 0.707107 0.707107 -0.000000
v 0.923879 0.382683 -0.000000
v 1.000000 -0.000000 -0.000000
v 0.923879 -0.382684 -0.000000
v 0.707107 -0.707107 -0.000000
v 0.382683 -0.923880 -0.000000
v 0.000000 -1.000000 -0.000000
v 0.270598 0.923880 0.270598
v 0.500000 0.707107 0.500000
v 0.653281 0.382683 0.653281
v 0.707107 -0.000000 0.707106
v 0.653281 -0.382684 0.653281
v 0.500000 -0.707107 0.500000
v 0.270598 -0.923880 0.270598
v 0.000000 0.923880 0.382683
v 0.000000 0.707107 0.707106
v 0.000000 0.382683 0.923879
v 0.000000 -0.000000 1.000000
v 0.000000 -0.382684 0.923879
v 0.000000 -0.707107 0.707106
v 0.000000 -0.923880 0.382683
v -0.270598 0.923880 0.270598
v -0.500000 0.707107 0.500000
v -0.653281 0.382683 0.653281
v -0.707107 -0.000000 0.707106
v -0.653281 -0.382684 0.653281
v -0.500000 -0.707107 0.500000
v -0.270598 -0.923880 0.270598
v -0.382683 0.923880 -0.000000
v -0.707107 0.707107 -0.000000
v -0.923879 0.382683 -0.000000
v -1.000000 -0.000000 -0.000000
v -0.923879 -0.382684 -0.000000
v -0.707107 -0.707107 -0.000000
v -0.382683 -0.923880 -0.000000
v -0.270598 0.923880 -0.270598
v -0.500000 0.707107 -0.500000
v -0.653281 0.382683 -0.653281
v -0.707107 -0.000000 -0.707107
v -0.653281 -0.382684 -0.653281
v -0.500000 -0.707107 -0.500000
v -0.270598 -0.923880 -0.270598
v -0.000000 0.923880 -0.382683
v -0.000000 0.707107 -0.707107
v -0.000000 0.382683 -0.923879
v -0.000000 -0.382684 -0.923879
v -0.000000 -0.707107 -0.707107
v -0.000000 -0.923880 -0.382683
vn 0.0805 -0.9776 -0.1945
vn 0.3256 -0.5253 -0.7862
vn 0.3764 0.1807 -0.9087
vn 0.2243 0.8103 -0.5414
vn 0.2243 -0.8103 -0.5414
vn 0.3764 -0.1807 -0.9087
vn 0.3256 0.5253 -0.7862
vn 0.0805 0.9776 -0.1945
vn 0.5414 -0.8103 -0.2243
vn 0.9087 -0.1807 -0.3764
vn 0.7862 0.5253 -0.3256
vn 0.1945 0.9776 -0.0805
vn 0.1945 -0.9776 -0.0805
vn 0.7862 -0.5253 -0.3256
vn 0.9087 0.1807 -0.3764
vn 0.5414 0.8103 -0.2243
vn 0.9087 -0.1807 0.3764
vn 0.7862 0.5253 0.3256
vn 0.1945 0.9776 0.0805
vn 0.1945 -0.9776 0.0805
vn 0.7862 -0.5253 0.3256
vn 0.9087 0.1807 0.3764
vn 0.5414 0.8103 0.2243
vn 0.5414 -0.8103 0.2243
vn 0.0805 -0.9776 0.1945
vn 0.3256 -0.5253 0.7862
vn 0.3764 0.1807 0.9087
vn 0.2243 0.8103 0.5414
vn 0.2243 -0.8103 0.5414
vn 0.3764 -0.1807 0.9087
vn 0.3256 0.5253 0.7862
vn 0.0805 0.9776 0.1945
vn -0.3764 0.1807 0.9087
vn -0.2243 0.8103 0.5414
vn -0.2243 -0.8103 0.5414
vn -0.3764 -0.1807 0.9087
vn -0.3256 0.5253 0.7862
vn -0.0805 0.9776 0.1945
vn -0.0805 -0.9776 0.1945
vn -0.3256 -0.5253 0.7862
vn -0.5414 -0.8103 0.2243
vn -0.9087 -0.1807 0.3764
vn -0.7862 0.5253 0.3256
vn -0.1945 0.9776 0.0805
vn -0.1945 -0.9776 0.0805
vn -0.7862 -0.5253 0.3256
vn -0.9087 0.1807 0.3764
vn -0.5414 0.8103 0.2243
vn -0.7862 0.5253 -0.3256
vn -0.1945 0.9776 -0.0805
vn -0.1945 -0.9776 -0.0805
vn -0.7862 -0.5253 -0.3256
vn -0.9087 0.1807 -0.3764
vn -0.5414 0.8103 -0.2243
vn -0.5414 -0.8103 -0.2243
vn -0.9087 -0.1807 -0.3764
vn -0.0805 -0.9776 -0.1945
vn -0.3256 -0.5253 -0.7862
vn -0.3764 0.1807 -0.9087
vn -0.2243 0.8103 -0.5414
vn -0.2243 -0.8103 -0.5414
vn -0.3764 -0.1807 -0.9087
vn -0.3256 0.5253 -0.7862
vn -0.0805 0.9776 -0.1945
usemtl None
s off
f 17/1/1 58/1/1 9/1/1
f 56/1/2 8/1/2 57/1/2
f 55/1/3 6/1/3 1/1/3
f 54/1/4 3/1/4 4/1/4
f 57/1/5 9/1/5 58/1/5
f 56/1/6 6/1/6 7/1/6
f 55/1/7 4/1/7 5/1/7
f 53/1/8 2/1/8 3/1/8
f 9/1/9 15/1/9 16/1/9
f 6/1/10 14/1/10 7/1/10
f 4/1/11 12/1/11 5/1/11
f 3/1/12 2/1/12 10/1/12
f 17/1/13 9/1/13 16/1/13
f 7/1/14 15/1/14 8/1/14
f 5/1/15 13/1/15 6/1/15
f 3/1/16 11/1/16 4/1/16
f 13/1/17 22/1/17 14/1/17
f 11/1/18 20/1/18 12/1/18
f 10/1/19 2/1/19 18/1/19
f 17/1/20 16/1/20 24/1/20
f 14/1/21 23/1/21 15/1/21
f 12/1/22 21/1/22 13/1/22
f 10/1/23 19/1/23 11/1/23
f 15/1/24 24/1/24 16/1/24
f 17/1/25 24/1/25 31/1/25
f 23/1/26 29/1/26 30/1/26
f 20/1/27 28/1/27 21/1/27
f 18/1/28 26/1/28 19/1/28
f 23/1/29 31/1/29 24/1/29
f 21/1/30 29/1/30 22/1/30
f 19/1/31 27/1/31 20/1/31
f 18/1/32 2/1/32 25/1/32
f 28/1/33 34/1/33 35/1/33
f 26/1/34 32/1/34 33/1/34
f 30/1/35 38/1/35 31/1/35
f 28/1/36 36/1/36 29/1/36
f 26/1/37 34/1/37 27/1/37
f 25/1/38 2/1/38 32/1/38
f 17/1/39 31/1/39 38/1/39
f 30/1/40 36/1/40 37/1/40
f 37/1/41 45/1/41 38/1/41
f 35/1/42 43/1/42 36/1/42
f 33/1/43 41/1/43 34/1/43
f 32/1/44 2/1/44 39/1/44
f 17/1/45 38/1/45 45/1/45
f 36/1/46 44/1/46 37/1/46
f 35/1/47 41/1/47 42/1/47
f 32/1/48 40/1/48 33/1/48
f 40/1/49 48/1/49 41/1/49
f 39/1/50 2/1/50 46/1/50
f 17/1/51 45/1/51 52/1/51
f 44/1/52 50/1/52 51/1/52
f 42/1/53 48/1/53 49/1/53
f 39/1/54 47/1/54 40/1/54
f 45/1/55 51/1/55 52/1/55
f 42/1/56 50/1/56 43/1/56
f 17/1/57 52/1/57 58/1/57
f 50/1/58 57/1/58 51/1/58
f 48/1/59 1/1/59 49/1/59
f 46/1/60 54/1/60 47/1/60
f 51/1/61 58/1/61 52/1/61
f 49/1/62 56/1/62 50/1/62
f 47/1/63 55/1/63 48/1/63
f 46/1/64 2/1/64 53/1/64
f 56/1/2 7/1/2 8/1/2
f 55/1/3 5/1/3 6/1/3
f 54/1/4 53/1/4 3/1/4
f 57/1/5 8/1/5 9/1/5
f 56/1/6 1/1/6 6/1/6
f 55/1/7 54/1/7 4/1/7
f 9/1/9 8/1/9 15/1/9
f 6/1/10 13/1/10 14/1/10
f 4/1/11 11/1/11 12/1/11
f 7/1/14 14/1/14 15/1/14
f 5/1/15 12/1/15 13/1/15
f 3/1/16 10/1/16 11/1/16
f 13/1/17 21/1/17 22/1/17
f 11/1/18 19/1/18 20/1/18
f 14/1/21 22/1/21 23/1/21
f 12/1/22 20/1/22 21/1/22
f 10/1/23 18/1/23 19/1/23
f 15/1/24 23/1/24 24/1/24
f 23/1/26 22/1/26 29/1/26
f 20/1/27 27/1/27 28/1/27
f 18/1/28 25/1/28 26/1/28
f 23/1/29 30/1/29 31/1/29
f 21/1/30 28/1/30 29/1/30
f 19/1/31 26/1/31 27/1/31
f 28/1/33 27/1/33 34/1/33
f 26/1/34 25/1/34 32/1/34
f 30/1/35 37/1/35 38/1/35
f 28/1/36 35/1/36 36/1/36
f 26/1/37 33/1/37 34/1/37
f 30/1/40 29/1/40 36/1/40
f 37/1/41 44/1/41 45/1/41
f 35/1/42 42/1/42 43/1/42
f 33/1/43 40/1/43 41/1/43
f 36/1/46 43/1/46 44/1/46
f 35/1/47 34/1/47 41/1/47
f 32/1/48 39/1/48 40/1/48
f 40/1/49 47/1/49 48/1/49
f 44/1/52 43/1/52 50/1/52
f 42/1/53 41/1/53 48/1/53
f 39/1/54 46/1/54 47/1/54
f 45/1/55 44/1/55 51/1/55
f 42/1/56 49/1/56 50/1/56
f 50/1/58 56/1/58 57/1/58
f 48/1/59 55/1/59 1/1/59
f 46/1/60 53/1/60 54/1/60
f 51/1/61 57/1/61 58/1/61
f 49/1/62 1/1/62 56/1/62
f 47/1/63 54/1/63 55/1/63
